<svg xmlns="http://www.w3.org/2000/svg" width="162" height="14"><defs><clipPath id="a"><path fill="none" d="M0 0h162v14H0z"/></clipPath></defs><g clip-path="url(#a)" fill="#1b1311" fill-rule="evenodd"><path d="M159.019 13.949a3.032 3.032 0 01-1.58-.437l-9.62-5.764v-.014l-4.29-2.571-1.58-.916a.711.711 0 00-.387-.1.687.687 0 00-.688.681v7.722a1.466 1.466 0 01-2.933 0V4.04a2.6 2.6 0 01-.027-.379 2.976 2.976 0 013.01-2.941 3.032 3.032 0 011.58.437l9.622 5.769v.014l4.285 2.571 1.507.875a1.824 1.824 0 00.46.144.689.689 0 00.692-.686V2.119a1.466 1.466 0 012.933 0l-.018 8.885a2.941 2.941 0 01-2.964 2.945m-26.758-.546s-7.194-9.827-7.459-10.089a1.212 1.212 0 00-.911-.383 1.268 1.268 0 00-1.011.5l-.023.032-.046.063-7.3 9.9a1.357 1.357 0 01-1.894.284 1.328 1.328 0 01-.3-1.872l7.651-10.351h.018a3.688 3.688 0 015.811 0l7.65 10.338a1.327 1.327 0 01-.3 1.867 1.362 1.362 0 01-1.89-.289m-23.84.546a1.447 1.447 0 01-1.453-1.439V2.132a1.453 1.453 0 012.905 0V12.51a1.447 1.447 0 01-1.452 1.439m-7.268 0a3.032 3.032 0 01-1.58-.437l-9.626-5.764v-.014l-4.29-2.571-1.576-.92-.018.009a.708.708 0 00-.373-.108.687.687 0 00-.688.681v7.722a1.466 1.466 0 01-2.933 0V3.675A2.961 2.961 0 0183.051.72a3.032 3.032 0 011.58.437l9.622 5.769v.014l4.29 2.571 1.58.92.018-.014a.648.648 0 00.369.113.689.689 0 00.692-.686V2.119a1.466 1.466 0 012.933 0v8.9a2.941 2.941 0 01-2.983 2.927m-30.328 0H57.81a5.735 5.735 0 01-5.761-5.71V6.403A5.735 5.735 0 0157.81.693h13.009a5.739 5.739 0 015.765 5.71v1.836a5.739 5.739 0 01-5.765 5.71m3.233-7.158a3.238 3.238 0 00-3.251-3.22H58.156a3.238 3.238 0 00-3.251 3.22v1.038a3.234 3.234 0 003.251 3.216h12.645a3.234 3.234 0 003.251-3.216zM44.75 8.662l-.82.023a19.035 19.035 0 014.176 2.675 1.411 1.411 0 01.633 1.173 1.432 1.432 0 01-2.281 1.137c-3.958-3.172-8.411-4.827-11.144-4.985h-6.439a1.1 1.1 0 00-1.143 1.119v2.878l-.014.009a1.452 1.452 0 01-1.439 1.231h-.027a1.426 1.426 0 01-1.421-1.263V9.506a3.516 3.516 0 013.506-3.45h16.59a1.256 1.256 0 001.28-1.245 1.271 1.271 0 00-1.28-1.263H26.252a1.441 1.441 0 01-1.425-1.439A1.419 1.419 0 0126.252.693h18.7a3.985 3.985 0 01-.2 7.965M19.2 13.326S12 3.498 11.739 3.236a1.239 1.239 0 00-.911-.383 1.268 1.268 0 00-1.011.5l-7.376 9.991a1.361 1.361 0 01-1.89.289 1.331 1.331 0 01-.291-1.867L7.923 1.41a3.7 3.7 0 015.811 0l7.646 10.337a1.326 1.326 0 01-.291 1.867 1.362 1.362 0 01-1.89-.289m-8.334-4.442a1.838 1.838 0 11-1.853 1.836 1.846 1.846 0 011.853-1.836"/></g></svg>