<svg xmlns="http://www.w3.org/2000/svg" width="59" height="44.875"><defs><clipPath id="a"><path fill="#fff" d="M0 0h59v44.875H0z"/></clipPath></defs><g clip-path="url(#a)" fill="#fff"><path d="M22.475 6.196a14.262 14.262 0 00-1.414.7l-1.108.71a17.7 17.7 0 00-4.913 24.86 97.254 97.254 0 003.209-1.159 14.339 14.339 0 01.96-18.839v3.891h3.266z"/><path d="M22.475 29.608v-8.7h-5.3v3.281h2.034v6.759c1.062-.415 2.158-.875 3.266-1.34m3.498-24.383l-1.289.267v23.15a167.59 167.59 0 003.266-1.516v-3.073h2.079l1.374 1.362a151.887 151.887 0 003.027-1.613l-1.392-1.387 2.215-2.255V5.492l-1.238-.312a16 16 0 00-2.033-.307v13.915l-1.953 1.948H27.95V4.873a14.151 14.151 0 00-1.977.352m11.489 1.056v15.818a99.232 99.232 0 003.271-1.954v-7.67a16.452 16.452 0 013.289 5.464l1.59-.988c.42-.29.846-.585 1.244-.88l-.023-.062v-.04a17.771 17.771 0 00-9.371-9.688"/><path d="M58.711 6.775c-.8-1.568-3-2.1-6.725-1.6a43.641 43.641 0 00-6.242 1.392 22.4 22.4 0 00-38.11 13.3l.886-.983.954 1.056A20.56 20.56 0 0143.722 7.178a18.4 18.4 0 011.516 1.534 20.54 20.54 0 013.692 5.887l1.522-1.039a22.119 22.119 0 00-3.283-5.424 38.445 38.445 0 015.061-1.079c3.107-.415 4.515.034 4.794.585.363.7-.454 3.073-5.81 7.5l-.074.051-1.541 1.226c-1.908 1.465-4.084 2.976-6.446 4.487l-.341.222c-.676.426-1.369.858-2.079 1.289a121.064 121.064 0 01-3.271 1.925c-.727.409-1.46.818-2.209 1.227-.983.534-1.977 1.068-3 1.59-.085.051-.176.091-.273.136a125.512 125.512 0 01-4.027 1.977q-1.644.784-3.266 1.494c-.744.329-1.477.647-2.209.948q-3.22 1.346-6.174 2.357c-.926.318-1.835.625-2.709.892l-1.886.557a37.78 37.78 0 01-4.936 1.051c-3.107.409-4.521-.034-4.8-.585-.363-.7.46-3.067 5.816-7.491.148-.125.312-.244.46-.363a22.323 22.323 0 002.323 5.617l1.827-.53a20.72 20.72 0 01-2.55-6.35 20.023 20.023 0 01-.352-2.1c-.028-.29-.08-.579-.1-.869l-.119-2.42-.787-1.181-1.092 1.646.149 1.954a21.213 21.213 0 00.256 2.164c-.415.324-.835.647-1.221.966-5.284 4.37-7.406 7.67-6.299 9.819.8 1.568 3.01 2.1 6.73 1.6a42.286 42.286 0 005.958-1.312 22.261 22.261 0 0027.1 5.265A22.718 22.718 0 0052.31 23.876q.017-.366 0-.852l-.841 1.255-.943-1.392a20.561 20.561 0 01-35.588 13.655c.914-.29 1.886-.642 2.845-.983a15.935 15.935 0 002.17 1.7l.659.437a14.251 14.251 0 001.863.931v-4.868c.733-.3 1.465-.608 2.209-.931v6.515l1.289.307a14.152 14.152 0 001.977.349v-8.631a146.658 146.658 0 004.027-1.965v10.596a15.851 15.851 0 002.033-.307l1.238-.307V27.699c.738-.392 1.494-.784 2.209-1.187v12.211a16.782 16.782 0 002.306-1.244l.222-.125a17.762 17.762 0 008-13.171c.04-.579.085-1.113.085-1.681 0-.534-.045-1.062-.085-1.6h-1.429c.863-.585 1.738-1.17 2.533-1.755l.023.028-.011-.028c.335-.25.67-.5.994-.738a24.445 24.445 0 01.335 2.743l1.056 1.579.75-1.119c-.148-1.908-.426-4.089-.523-4.47.233-.182.483-.369.7-.551 5.288-4.368 7.4-7.668 6.293-9.82M44.142 27.199a15.2 15.2 0 01-3.413 5.2v-7.79c.244-.142.471-.284.71-.426h3.351a16.561 16.561 0 01-.647 3.016"/></g></svg>